<svg width="82" height="79" viewBox="0 0 82 79" fill="none" xmlns="http://www.w3.org/2000/svg">
<path d="M38.2545 53.4437L37.5681 70.2677L37.4766 71.2735L18.2578 69.9477C17.1596 69.8563 16.1377 69.3762 15.192 68.5076C14.2463 67.639 13.5294 66.6408 13.0413 65.5131C12.7058 64.6902 12.4846 63.852 12.3778 62.9986C12.2711 62.1452 12.3321 61.1547 12.5609 60.027C12.7897 58.8993 12.9727 58.0611 13.11 57.5125C13.2472 56.9639 13.5752 55.9886 14.0938 54.5866C14.6124 53.1846 14.9022 52.3769 14.9632 52.1636C17.3427 52.5293 25.1064 52.956 38.2545 53.4437ZM20.5458 26.6532L28.7824 43.9801L22.0558 39.7741C20.134 41.9686 18.4333 44.1706 16.9537 46.3803C15.4742 48.59 14.3683 50.4949 13.6362 52.095C12.9041 53.6951 12.3016 55.1352 11.8287 56.4153C11.3559 57.6954 11.0737 58.6555 10.9822 59.2955L10.7991 60.2556L2.10495 43.9344C1.58634 43.142 1.31179 42.2886 1.28128 41.3742C1.25078 40.4599 1.3423 39.7436 1.55584 39.2255L1.92191 38.4026C2.98962 36.4824 4.72846 33.6175 7.13843 29.8077L0.732178 25.876L20.5458 26.6532ZM76.875 50.2892L68.2724 66.7018C67.9063 67.5856 67.3495 68.2943 66.6022 68.8276C65.8548 69.361 65.1913 69.6734 64.6116 69.7648L63.788 69.9477C61.6221 70.1611 58.2817 70.3439 53.7668 70.4963L54.1328 77.994L43.6083 61.2157L53.2634 44.6659L53.5837 52.575C58.7698 53.0627 63.0863 53.1389 66.5335 52.8036C69.9807 52.4684 72.5737 51.9655 74.3125 51.2949L76.875 50.2892ZM40.9543 8.0461C39.5205 9.96624 35.4785 16.5953 28.8282 27.9333L14.3226 19.3841L13.4532 18.8354L23.7489 2.55999C24.359 1.61516 25.2742 0.929394 26.4945 0.502697C27.7147 0.0759991 28.9349 -0.0763929 30.1552 0.0455207C30.8873 0.106477 31.6271 0.289348 32.3745 0.594132C33.1219 0.898916 33.7625 1.21894 34.2964 1.5542C34.8302 1.88946 35.4632 2.39236 36.1953 3.06288C36.9275 3.73341 37.4766 4.25916 37.8427 4.64014C38.2087 5.02112 38.7578 5.62307 39.49 6.44598C40.2221 7.2689 40.7102 7.80227 40.9543 8.0461ZM70.9264 22.0814L80.6273 38.6769C81.1764 39.8046 81.367 40.9628 81.1993 42.1514C81.0315 43.3401 80.612 44.4678 79.9409 45.5345C79.5443 46.1441 79.041 46.7079 78.4308 47.2261C77.8207 47.7442 77.2411 48.1709 76.692 48.5062C76.1429 48.8414 75.4031 49.1767 74.4727 49.512C73.5423 49.8472 72.8254 50.091 72.322 50.2434C71.8187 50.3958 71.0331 50.6092 69.9654 50.8835C68.8977 51.1578 68.1961 51.3407 67.8605 51.4321C66.8233 49.2376 62.7813 42.5934 55.7344 31.4992L70.057 22.5843L70.9264 22.0814ZM64.3828 11.7492L70.8806 7.95466L60.8137 25.0073L41.6407 24.093L48.5503 20.1613C47.5131 17.4487 46.3691 14.919 45.1183 12.5721C43.8676 10.2253 42.716 8.34326 41.6635 6.92602C40.6111 5.50877 39.6273 4.28964 38.7121 3.26861C37.7969 2.24758 37.08 1.53896 36.5614 1.14274L35.7835 0.548414L54.3159 0.594132C55.2616 0.502697 56.1462 0.662708 56.9699 1.07417C57.7936 1.48562 58.3884 1.91994 58.7545 2.37712L59.2578 3.06288C60.4476 4.92206 62.1559 7.81751 64.3828 11.7492Z" fill="#00D575"/>
</svg>
